{"title":"The.Blacklist.2013.S01.2160p.WEB-DL.DTS-HD.MA.5.1.x264.TrollUHD","uid":15626595,"size":310036252142,"categoryP":"video","categoryS":"hd___tv_shows","magnet":"?xt=urn:btih:484831b06c0147491a45877e5d8694641c83e38c&amp;dn=The.Blacklist.2013.S01.2160p.WEB-DL.DTS-HD.MA.5.1.x264.TrollUHD&amp;tr=udp%3A%2F%2Ftracker.leechers-paradise.org%3A6969&amp;tr=udp%3A%2F%2Fzer0day.ch%3A1337&amp;tr=udp%3A%2F%2Fopen.demonii.com%3A1337&amp;tr=udp%3A%2F%2Ftracker.coppersurfer.tk%3A6969&amp;tr=udp%3A%2F%2Fexodus.desync.com%3A6969","seeders":1,"leechers":1,"uploader":"BreexeOX","files":22,"time":1471916216,"description":"For the sake of sharing PLEASE stay and seed, atleast for a while! Others also want this. My bandwidth cant stand with good speed to everyone alone.\r\n\r\nGeneral\r\nFormat                      : Matroska\r\nFormat version              : Version 4 / Version 2\r\nFile size                   : 14.2 GiB\r\nDuration                    : 45 min\r\nOverall bit rate            : 45.1 Mb/s\r\nMovie name                  : The Blacklist - Season 1, Episode 1: Pilot (2013)\r\nEncoded date                : UTC 2016-01-29 18:19:46\r\nWriting application         : mkvmerge v8.5.1 ('Where you lead I will follow') 64bit\r\nWriting library             : libebml v1.3.3 + libmatroska v1.4.4\r\n\r\nVideo\r\nID                          : 1\r\nFormat                      : AVC\r\nFormat/Info                 : Advanced Video Codec\r\nFormat profile              :   \r\nFormat settings, CABAC      : Yes\r\nFormat settings, ReFrames   : 5 frames\r\nCodec ID                    : V_MPEG4/ISO/AVC\r\nDuration                    : 45 min\r\nBit rate                    : 40.4 Mb/s\r\nWidth                       : 3 840 pixels\r\nHeight                      : 2 160 pixels\r\nDisplay aspect ratio        : 16:9\r\nFrame rate mode             : Constant\r\nFrame rate                  : 23.976 (24000/1001) FPS\r\nColor space                 : YUV\r\nChroma subsampling          : 4:2:0\r\nBit depth                   : 8 bits\r\nScan type                   : Progressive\r\nBits/(Pixel*Frame)          : 0.203\r\nStream size                 : 12.7 GiB (90%)\r\nTitle                       : The Blacklist - Season 1, Episode 1: Pilot (2013) \r\nWriting library             : x264 core 148 r2638 7599210\r\nLanguage                    : English\r\nDefault                     : Yes\r\nForced                      : No\r\n\r\nAudio #1\r\nID                          : 2\r\nFormat                      : DTS\r\nFormat/Info                 : Digital Theater Systems\r\nFormat profile              : MA / Core\r\nMode                        : 16\r\nFormat settings, Endianness : Big\r\nCodec ID                    : A_DTS\r\nDuration                    : 45 min\r\nBit rate mode               : Variable / Constant\r\nBit rate                    : 2 256 kb/s / 1 509 kb/s\r\nChannel(s)                  : 6 channels\r\nChannel positions           : Front: L C R, Side: L R, LFE\r\nSampling rate               : 48.0 kHz\r\nFrame rate                  : 93.750 FPS (512 spf)\r\nBit depth                   : 16 bits\r\nCompression mode            : Lossless / Lossy\r\nStream size                 : 728 MiB (5%)\r\nTitle                       : DTS HD MA 5.1 - Blu-ray\r\nLanguage                    : English\r\nDefault                     : Yes\r\nForced                      : Yes\r\n\r\nAudio #2\r\nID                          : 3\r\nFormat                      : DTS\r\nFormat/Info                 : Digital Theater Systems\r\nFormat profile              : MA / Core\r\nMode                        : 16\r\nFormat settings, Endianness : Big\r\nCodec ID                    : A_DTS\r\nDuration                    : 45 min\r\nBit rate mode               : Variable / Constant\r\nBit rate                    : 2 268 kb/s / 1 509 kb/s\r\nChannel(s)                  : 6 channels\r\nChannel positions           : Front: L C R, Side: L R, LFE\r\nSampling rate               : 48.0 kHz\r\nFrame rate                  : 93.750 FPS (512 spf)\r\nBit depth                   : 16 bits\r\nCompression mode            : Lossless / Lossy\r\nStream size                 : 732 MiB (5%)\r\nTitle                       : DTS HD MA 5.1 - MVO, Lostfilm\r\nLanguage                    : Russian\r\nDefault                     : No\r\nForced                      : No\r\n\r\nAudio #3\r\nID                          : 4\r\nFormat                      : AC-3\r\nFormat/Info                 : Audio Coding 3\r\nMode extension              : CM (complete main)\r\nFormat settings, Endianness : Big\r\nCodec ID                    : A_AC3\r\nDuration                    : 45 min\r\nBit rate mode               : Constant\r\nBit rate                    : 192 kb/s\r\nChannel(s)                  : 2 channels\r\nChannel positions           : Front: L R\r\nSampling rate               : 48.0 kHz\r\nFrame rate                  : 31.250 FPS (1536 spf)\r\nCompression mode            : Lossy\r\nStream size                 : 62.0 MiB (0%)\r\nTitle                       : AC3 2.0 @ 192 kbps - DVO, SET\r\nLanguage                    : Russian\r\nDefault                     : No\r\nForced                      : No","torrent":{"xt":"urn:btih:484831b06c0147491a45877e5d8694641c83e38c","amp;dn":"The.Blacklist.2013.S01.2160p.WEB-DL.DTS-HD.MA.5.1.x264.TrollUHD","amp;tr":["udp%3A%2F%2Ftracker.leechers-paradise.org%3A6969","udp%3A%2F%2Fzer0day.ch%3A1337","udp%3A%2F%2Fopen.demonii.com%3A1337","udp%3A%2F%2Ftracker.coppersurfer.tk%3A6969","udp%3A%2F%2Fexodus.desync.com%3A6969"],"infoHash":"484831b06c0147491a45877e5d8694641c83e38c","infoHashBuffer":{"type":"Buffer","data":[72,72,49,176,108,1,71,73,26,69,135,126,93,134,148,100,28,131,227,140]},"announce":[],"urlList":[]}}